<svg enable-background="new 0 0 512 512" version="1.1" viewBox="0 0 512 512" xml:space="preserve" xmlns="http://www.w3.org/2000/svg"><path d="M256,500.7c116.2,0,210.7-94.5,210.7-210.7V106.4c0-4.9-3-9.4-7.5-11.3L260.7,12.3c-3-1.3-6.4-1.3-9.4,0L52.8,95.1 c-4.6,1.9-7.5,6.4-7.5,11.3V290C45.3,406.1,139.8,500.7,256,500.7z M69.8,114.6L256,36.9l186.2,77.7V290 c0,102.7-83.5,186.2-186.2,186.2S69.8,392.6,69.8,290V114.6z"></path><path d="m197.9 358.4h116.2c14.8 0 26.8-12 26.8-26.8v-65.1c0-13.8-10.4-25.1-23.8-26.7v-25.8c0-33.7-27.4-61.2-61.2-61.2-33.7 0-61.2 27.4-61.2 61.2v25.8c-13.4 1.5-23.8 12.9-23.8 26.7v65.1c0.2 14.7 12.2 26.8 27 26.8zm118.5-26.9c0 1.3-1.1 2.3-2.3 2.3h-116.2c-1.3 0-2.3-1.1-2.3-2.3v-65.1c0-1.3 1.1-2.3 2.3-2.3h116.2c1.3 0 2.3 1.1 2.3 2.3v65.1zm-60.4-154.1c20.2 0 36.7 16.4 36.7 36.7v25.6h-73.3v-25.7c-0.1-20.2 16.4-36.6 36.6-36.6z"></path></svg>